<svg width="70" height="67" viewBox="0 0 70 67" fill="none" xmlns="http://www.w3.org/2000/svg">
<rect width="70" height="67" rx="5" fill="black" fill-opacity="0.41"/>
<g opacity="0.9" filter="url(#filter0_d_235_11)">
<path d="M42 31.5C40.6193 31.5 39.5 32.6193 39.5 34C39.5 35.3807 40.6193 36.5 42 36.5V31.5ZM44.7678 35.7678C45.7441 34.7915 45.7441 33.2085 44.7678 32.2322L28.8579 16.3223C27.8816 15.346 26.2986 15.346 25.3223 16.3223C24.346 17.2986 24.346 18.8816 25.3223 19.8579L39.4645 34L25.3223 48.1421C24.346 49.1184 24.346 50.7014 25.3223 51.6777C26.2986 52.654 27.8816 52.654 28.8579 51.6777L44.7678 35.7678ZM42 36.5H43V31.5H42V36.5Z" fill="white"/>
</g>
<defs>
<filter id="filter0_d_235_11" x="20.5898" y="15.5898" width="28.9102" height="44.8203" filterUnits="userSpaceOnUse" color-interpolation-filters="sRGB">
<feFlood flood-opacity="0" result="BackgroundImageFix"/>
<feColorMatrix in="SourceAlpha" type="matrix" values="0 0 0 0 0 0 0 0 0 0 0 0 0 0 0 0 0 0 127 0" result="hardAlpha"/>
<feOffset dy="4"/>
<feGaussianBlur stdDeviation="2"/>
<feComposite in2="hardAlpha" operator="out"/>
<feColorMatrix type="matrix" values="0 0 0 0 0 0 0 0 0 0 0 0 0 0 0 0 0 0 0.25 0"/>
<feBlend mode="normal" in2="BackgroundImageFix" result="effect1_dropShadow_235_11"/>
<feBlend mode="normal" in="SourceGraphic" in2="effect1_dropShadow_235_11" result="shape"/>
</filter>
</defs>
</svg>
