<svg width="24" height="24" viewBox="0 0 24 24" fill="none" xmlns="http://www.w3.org/2000/svg">
<path d="M15.959 20.046H4.00001V4.004H10.979V8.984H15.959V10H18.01V8.014L15.96 5.962L14 4.004L12.01 2.014H4.01001C3.48107 2.01585 2.97447 2.22748 2.60138 2.60244C2.2283 2.9774 2.01921 3.48505 2.02001 4.014L2.01001 20.014C2.00921 20.5429 2.2183 21.0506 2.59138 21.4256C2.96447 21.8005 3.47107 22.0121 4.00001 22.014H18.01V20.014L15.959 20.046ZM21.26 18.014L23.01 12.014H21.51L20.51 15.444L19.51 12.014H18.01L19.76 18.014H21.26Z" fill="#F8F8F8"/>
<path d="M10.01 12.014H7.01001C6.74504 12.0148 6.49114 12.1204 6.30378 12.3078C6.11641 12.4951 6.0108 12.749 6.01001 13.014V17.014C6.0108 17.279 6.11641 17.5329 6.30378 17.7202C6.49114 17.9076 6.74504 18.0132 7.01001 18.014H10.01C10.275 18.0132 10.5289 17.9076 10.7162 17.7202C10.9036 17.5329 11.0092 17.279 11.01 17.014V16.014H9.51001V16.514H7.51001V13.514H9.51001V14.014H11.01V13.014C11.0092 12.749 10.9036 12.4951 10.7162 12.3078C10.5289 12.1204 10.275 12.0148 10.01 12.014ZM17.01 13.52V12.014H13.01C12.7448 12.014 12.4904 12.1194 12.3029 12.3069C12.1154 12.4944 12.01 12.7488 12.01 13.014V14.771C12.01 15.0362 12.1154 15.2906 12.3029 15.4781C12.4904 15.6656 12.7448 15.771 13.01 15.771H15.52V16.514H12.01V18.021H16.01C16.2752 18.021 16.5296 17.9156 16.7171 17.7281C16.9047 17.5406 17.01 17.2862 17.01 17.021V15.264C17.01 14.9988 16.9047 14.7444 16.7171 14.5569C16.5296 14.3694 16.2752 14.264 16.01 14.264H13.5V13.521L17.01 13.52Z" fill="#F8F8F8"/>
</svg>
