<svg width="20" height="20" viewBox="0 0 20 20" fill="none" xmlns="http://www.w3.org/2000/svg">
<path d="M0.326757 18.1028L4.09476 14.3341C2.87781 12.7807 2.21907 10.8628 2.22465 8.88937C2.22465 7.13122 2.7459 5.41255 3.72249 3.9507C4.69908 2.48885 6.08714 1.34948 7.71115 0.676667C9.33517 0.00385164 11.1222 -0.172187 12.8462 0.170811C14.5703 0.513809 16.1539 1.36044 17.3969 2.60364C18.6398 3.84684 19.4863 5.43077 19.8292 7.15514C20.1722 8.87951 19.9961 10.6669 19.3235 12.2912C18.6508 13.9155 17.5116 15.3038 16.05 16.2806C14.5885 17.2574 12.8701 17.7787 11.1123 17.7787C9.13924 17.7843 7.22172 17.1254 5.66862 15.9083L1.90062 19.677C1.69097 19.884 1.40826 20 1.11369 20C0.819118 20 0.536404 19.884 0.326757 19.677C0.223186 19.5738 0.141008 19.4511 0.0849361 19.316C0.0288639 19.181 0 19.0362 0 18.8899C0 18.7437 0.0288639 18.5989 0.0849361 18.4638C0.141008 18.3287 0.223186 18.2061 0.326757 18.1028ZM17.7781 8.88937C17.7781 7.57076 17.3871 6.28176 16.6547 5.18537C15.9223 4.08898 14.8812 3.23445 13.6632 2.72984C12.4452 2.22523 11.1049 2.0932 9.8119 2.35045C8.51887 2.6077 7.33114 3.24267 6.39892 4.17507C5.4667 5.10747 4.83184 6.29542 4.57465 7.5887C4.31744 8.88197 4.44945 10.2225 4.95397 11.4407C5.45848 12.659 6.31285 13.7002 7.40903 14.4328C8.5052 15.1654 9.79396 15.5564 11.1123 15.5564C12.8794 15.5539 14.5735 14.8507 15.823 13.601C17.0726 12.3512 17.7756 10.6568 17.7781 8.88937Z" fill="#8D8989"/>
</svg>
